<?xml version="1.0" encoding="UTF-8"?>
<!DOCTYPE svg PUBLIC "-//W3C//DTD SVG 1.1//EN" "http://www.w3.org/Graphics/SVG/1.1/DTD/svg11.dtd">
<!-- Creator: CorelDRAW 2017 -->
<svg xmlns="http://www.w3.org/2000/svg" xml:space="preserve" width="523px" height="59px" version="1.1" style="shape-rendering:geometricPrecision; text-rendering:geometricPrecision; image-rendering:optimizeQuality; fill-rule:evenodd; clip-rule:evenodd"
viewBox="0 0 2542800 285800"
 xmlns:xlink="http://www.w3.org/1999/xlink">
 <defs>
  <style type="text/css">
   <![CDATA[
    .fil0 {fill:#3D5476;fill-rule:nonzero}
   ]]>
  </style>
 </defs>
 <g id="form_x0020_01-good-and-neutral">
  <metadata id="CorelCorpID_0Corel-Layer"/>
  <path class="fil0" d="M1500 20100c-1200,21600 -1500,44600 -1500,68000 0,35800 1200,72900 2600,105800 600,4100 3200,6100 5900,6100 2600,0 5500,-2300 5800,-6400 -1500,-32900 -2600,-70000 -2600,-105800 0,-23400 300,-46400 1400,-68000 -900,-3500 -3500,-4900 -5800,-4900 -2600,0 -5000,1700 -5800,5200z"/>
  <path id="1" class="fil0" d="M48700 5200c-4400,38300 -8200,77900 -8200,117000 0,20400 900,40800 3500,60600 1500,11100 7000,15200 14000,15200 10800,0 27700,-7000 34700,-15400 2400,-2400 3200,-4400 3200,-6500 0,-2600 -1700,-4600 -4000,-4600 -1800,0 -4100,1100 -6200,3500 -5500,6700 -17800,11600 -23900,11600 -2900,0 -4900,-2000 -6400,-6700 -2900,-17800 -3800,-35800 -3800,-54200 0,-41400 5600,-82800 8800,-120700 -900,-3500 -3500,-5000 -5900,-5000 -2600,0 -4900,1700 -5800,5200z"/>
  <path id="2" class="fil0" d="M99400 108800c-1400,-9100 -12500,-7300 -11900,-600l900 6700 0 -300c3500,27400 8700,62400 27100,77300 -11700,26500 -19000,55400 -20400,85700 0,7600 11000,8200 11600,600 1500,-28000 8200,-55400 19300,-81100 2000,900 4400,1200 7000,1500 3800,0 9600,-600 12500,-3500 13400,-12800 23900,-55400 33600,-82000 1400,-7000 -7300,-10500 -10800,-4600 -17200,21300 -35900,46600 -47600,72000 -13400,-13100 -17800,-42900 -20700,-67100l-600 -4600zm49000 46900c2400,-3800 5300,-7600 7900,-11600 -8500,22400 -18100,43700 -22700,42800 -900,0 -1800,-300 -2700,-600 5300,-10500 11100,-20700 17500,-30600z"/>
  <path id="3" class="fil0" d="M260100 114600c2400,-1500 3200,-3500 3200,-5500 0,-3000 -2300,-5600 -6700,-5600 -26200,9400 -50100,25400 -63600,51900 -3700,7600 -7800,15800 -7800,24800 0,5000 1400,9100 6100,11400 4400,2300 9600,3500 15500,3500 10200,0 21200,-4100 30600,-11100 9000,-6700 18300,-14300 25900,-22700 -300,2000 -300,4000 -300,5800 0,8700 2400,16900 7300,23900 4400,5800 10200,7900 16600,7900 14300,0 34200,-11100 40600,-21000 300,-900 300,-1500 300,-2100 0,-3500 -3200,-6400 -6400,-6400 -1500,0 -2700,600 -3800,2100 -4700,7600 -19900,15700 -30700,15700 -3200,0 -6100,-600 -7200,-2600 -3800,-5800 -5000,-12000 -5000,-18100 0,-7300 1500,-14900 1800,-23000 4600,-8800 7500,-18400 8100,-29500 -300,-4400 -4100,-9900 -7900,-9900 -1700,0 -3200,1200 -4300,3800 -2900,8500 -5300,19200 -6700,29500 -8200,15100 -21900,27400 -35300,37300 -7000,5200 -16400,8700 -23600,8700 -7000,0 -9100,-1700 -9100,-5500 0,-2300 600,-5300 1800,-8800 8400,-27700 34100,-44900 60600,-54500z"/>
  <path id="4" class="fil0" d="M509700 91600c0,600 -300,1100 -300,1700 0,3500 3000,5600 5900,5600 2000,0 4400,-1200 5500,-3200 3800,-10500 5600,-21600 5600,-33000 0,-30600 -14300,-58900 -47600,-58900 -28300,0 -76400,22400 -76400,56000 0,18100 12900,28300 28900,34400 14000,5500 28000,7600 43700,10500 -30000,8400 -48100,11700 -72900,19800 -10800,3500 -18900,13400 -18900,22800 0,9600 4100,18600 10800,25300 26200,26000 66500,29500 98200,29500 31500,0 61900,-6400 90400,-25400 900,-1100 1200,-2000 1200,-3200 0,-3200 -3200,-6400 -6100,-6400 -900,0 -2100,600 -2900,1200 -25700,17500 -53700,22700 -82800,22700 -29500,0 -69500,-4100 -89600,-25700 -4300,-4600 -7000,-10500 -7000,-16600 0,-3800 4400,-11100 10500,-13100 25700,-8200 52200,-14000 78500,-21900 4300,-2000 10500,-4900 10500,-10200 0,-6100 -8800,-8400 -12900,-9300 -14000,-2900 -28800,-4700 -44300,-10200 -13100,-5000 -23600,-12300 -23600,-24200 0,-26600 40500,-44300 64700,-44300 25100,0 35900,22400 35900,47200 0,9600 -1800,19500 -5000,28900z"/>
  <path id="5" class="fil0" d="M703400 108200c0,-4700 -2700,-7000 -5600,-7000 -2600,0 -5500,2300 -6100,6700 -900,7600 -1400,21300 -2000,35900 -18400,6100 -44600,10200 -62700,4900l1700 -21600c15500,-22700 26600,-48400 26600,-75800 0,-6700 -900,-13700 -3000,-21300 -500,-2600 -4000,-14500 -10200,-14500 -9600,0 -14000,18600 -14800,26200 -2700,26800 -7000,54500 -10000,81700 -3700,5500 -7800,11000 -12200,16000 -7600,-4400 -16900,-8200 -24800,-9000 -900,0 -2000,-300 -2900,-300 -7000,0 -11100,3200 -11100,7500 0,2400 1200,5000 4100,7900 7000,2900 14300,5800 21900,7900l-18100 18900c-900,1500 -1500,2700 -1500,4100 0,3500 2700,5900 5600,5900 1400,0 2900,-600 4100,-1800 7200,-8200 15400,-15400 22700,-23900 4100,600 7300,1500 9600,5000l0 11000c0,19000 1500,37700 5300,55200 2900,13700 17200,57700 37000,57700 900,0 2000,0 2900,-300 7000,-1800 7000,-16600 7000,-20100 0,-33300 -11900,-75500 -36400,-104100 17200,4600 41700,300 58900,-5600l0 20400c0,9100 1100,16400 4100,19300 3200,3200 7800,6400 12800,6400 14300,0 41700,-11700 49900,-24500 500,-1200 800,-2300 800,-3500 0,-3200 -2900,-5200 -5800,-5200 -1500,0 -3200,500 -4400,1700 -4900,7300 -24500,19300 -36700,19600 -5000,0 -9100,-300 -9100,-7600l0 -6200c0,-19800 1200,-45700 2400,-67600zm-47300 156000c0,1200 300,2000 300,2900 0,3800 -800,5900 -2600,5900 -1500,0 -3500,-1500 -6100,-5300 -7900,-10800 -14300,-33800 -16100,-42300 -3800,-16900 -5200,-33800 -5200,-51000 19500,25600 27400,61800 29700,89800zm44600 -185500c7000,-7800 12900,-17200 13800,-28000 -600,-3800 -3300,-5800 -5900,-5800 -2000,0 -4400,1500 -5500,4400 -1200,11600 -7300,17500 -10800,21000 -1200,1700 -1800,3200 -1800,4600 0,3300 2400,5600 5600,5600 1400,0 3200,-600 4600,-1800zm-68800 19900c3500,-22500 5600,-45500 8800,-68300 0,1200 300,2400 600,2700 1400,5800 2300,12200 2300,18300 0,16600 -4400,32400 -11700,47300z"/>
  <path id="6" class="fil0" d="M965500 177300c600,-1300 1200,-2400 1200,-3600 0,-3200 -2600,-6400 -5500,-6400 -1200,0 -2400,600 -3500,1400 -6200,7600 -17500,17300 -25100,22000 -2300,1400 -4400,2300 -6700,2300 -3200,0 -6400,-1700 -9600,-5800 -5300,-6700 -12600,-37700 -12900,-60500 0,-12000 -6700,-16400 -10800,-16400 -3500,0 -8100,4100 -11300,7300 -15500,16300 -23400,32400 -34700,53500 -1200,2300 -1800,5200 -2700,5200 -500,0 -1100,-1400 -2300,-5200 -3500,-12800 -7900,-30100 -10200,-47900 -600,-3000 -3200,-9400 -6400,-12600 -1500,-1500 -2900,-2100 -4100,-2100 -2600,0 -5000,2700 -7300,4700 -14900,14000 -34100,41500 -45200,62300 -1500,2900 -2300,4100 -2900,4100 -900,0 -1200,-1800 -2100,-4700 -2000,-14900 -3200,-42100 -3200,-62300l0 -6400c-300,-4400 -2600,-6800 -5500,-6800 -2600,0 -5500,2100 -6100,6200 -300,6100 -300,12300 -300,19000 0,15500 600,32100 2900,47100 1500,9900 3800,18400 7300,22800 1400,2000 2900,2900 4400,2900 2300,0 4900,-2000 7000,-4700 14000,-19900 28800,-47000 45200,-64600 1400,-1700 2900,-2900 3800,-2900 1100,0 1700,1500 2300,5200 2900,22300 8700,47100 15700,63800 1500,2100 3200,3200 5300,3200 1700,0 3800,-900 5500,-3800 14000,-24900 22800,-46500 40000,-65500 1100,-1400 2000,-1700 2600,-1700 1200,0 900,1700 1200,3200 600,20700 5800,46400 11900,60200 5000,10800 11100,15500 18700,15500 4100,0 8700,-1500 13700,-4100 12500,-6500 23600,-16900 29700,-23900z"/>
  <path id="7" class="fil0" d="M982200 114300c500,-1400 800,-2900 800,-4100 0,-3500 -2300,-5200 -4900,-5200 -2100,0 -4700,1100 -6100,3500 -12900,15700 -17000,34100 -17000,52500 0,21300 13500,37300 34700,37300 7600,0 15500,-1800 23100,-5500 18900,-9400 37900,-30100 37900,-51700 0,-28500 -19300,-38700 -36800,-38700 -16900,0 -27400,9000 -32000,25300 0,5000 2300,6700 4900,6700 2900,0 5900,-2000 6200,-4900 3400,-8800 8700,-15500 20900,-15500 16100,0 24800,13100 24800,27400 0,18400 -15400,33300 -30000,40300 -6100,3200 -12800,4600 -19000,4600 -12500,0 -22700,-7200 -22700,-25300 0,-15500 4700,-32700 15200,-46700z"/>
  <path id="8" class="fil0" d="M1074000 108200c-1700,-2900 -4100,-4400 -6100,-4400 -2900,0 -5500,2300 -5500,5800 0,900 200,1800 500,2700 9700,27100 17000,46600 32100,70300 6700,10700 16600,16900 20400,16900 7600,0 19300,-16900 22200,-22200 11900,-19800 23300,-46100 27400,-69100 -300,-3800 -3500,-6100 -6700,-6100 -2300,0 -4700,1400 -5000,4300 -7300,26600 -15400,56300 -34400,77600 -1400,1800 -2600,2600 -3800,2600 -1700,0 -3200,-1400 -4900,-3200 -17800,-24500 -25700,-45800 -36200,-75200z"/>
  <polygon id="9" class="fil0" points="1269600,119900 1348900,153900 1348900,168400 1254700,125200 1254700,114100 1348900,71100 1348900,85600 "/>
  <polygon id="10" class="fil0" points="1404700,28600 1465900,175000 1527300,28600 1545900,28600 1545900,194500 1531900,194500 1531900,122300 1533100,48200 1471300,194500 1460500,194500 1399000,48800 1400100,121800 1400100,194500 1386100,194500 1386100,28600 "/>
  <path id="11" class="fil0" d="M1662600 194500c-1300,-3900 -2200,-9600 -2600,-17200 -4800,6200 -10900,11100 -18300,14400 -7400,3400 -15200,5100 -23500,5100 -11800,0 -21400,-3300 -28800,-9900 -7300,-6600 -11000,-14900 -11000,-25100 0,-11900 5000,-21500 15000,-28400 10000,-7000 23900,-10500 41800,-10500l24700 0 0 -14000c0,-8900 -2700,-15800 -8200,-20900 -5400,-5000 -13300,-7600 -23700,-7600 -9500,0 -17400,2500 -23600,7300 -6200,4900 -9300,10800 -9300,17700l-13700 -200c0,-9800 4500,-18200 13700,-25400 9100,-7200 20300,-10800 33600,-10800 13700,0 24600,3400 32500,10300 8000,6900 12000,16400 12200,28800l0 58300c0,11900 1300,20800 3800,26700l0 1400 -14600 0zm-42800 -9600c9100,0 17200,-2200 24400,-6600 7200,-4400 12400,-10300 15700,-17700l0 -27200 -24400 0c-13600,100 -24200,2600 -31900,7500 -7700,4800 -11500,11500 -11500,19900 0,7000 2600,12700 7700,17300 5100,4500 11800,6800 20000,6800z"/>
  <path id="12" class="fil0" d="M1704300 131800c0,-19200 4300,-34400 12800,-45800 8600,-11300 20200,-17000 34800,-17000 16700,0 29400,6600 38100,19700l0 -69200 13500 0 0 175000 -12700 0 -600 -16400c-8700,12500 -21500,18700 -38500,18700 -14200,0 -25700,-5700 -34300,-17100 -8700,-11400 -13100,-26900 -13100,-46300l0 -1600zm13800 2400c0,15700 3200,28100 9500,37100 6300,9100 15200,13600 26600,13600 16800,0 28700,-7300 35800,-22200l0 -57800c-7100,-16000 -18900,-24000 -35600,-24000 -11400,0 -20400,4500 -26700,13500 -6400,9000 -9600,22200 -9600,39800z"/>
  <path id="13" class="fil0" d="M1960000 142800c-2000,17500 -8200,30800 -18800,40100 -10600,9300 -24700,13900 -42300,13900 -12300,0 -23200,-3000 -32600,-9200 -9500,-6200 -16800,-14900 -21900,-26100 -5200,-11400 -7900,-24200 -7900,-38800l0 -21500c0,-14700 2600,-27800 7700,-39200 5200,-11400 12600,-20200 22300,-26400 9700,-6200 20800,-9300 33400,-9300 17800,0 31800,4800 42100,14400 10300,9600 16300,22800 18000,39800l-14200 0c-3500,-28200 -18700,-42300 -45900,-42300 -15000,0 -27000,5600 -35900,16900 -8900,11200 -13400,26800 -13400,46600l0 20300c0,19200 4400,34400 13000,45800 8800,11400 20500,17100 35300,17100 14700,0 25700,-3500 33100,-10500 7500,-7000 12100,-17600 13800,-31600l14200 0z"/>
  <path id="14" class="fil0" d="M1983400 131100c0,-11900 2300,-22500 6800,-32000 4600,-9500 11100,-16900 19500,-22200 8400,-5300 17900,-7900 28600,-7900 16300,0 29600,5800 39800,17300 10200,11500 15300,26700 15300,45700l0 2900c0,11900 -2300,22600 -6900,32200 -4600,9500 -11100,16800 -19400,22000 -8400,5200 -17900,7700 -28600,7700 -16300,0 -29600,-5700 -39800,-17200 -10200,-11500 -15300,-26800 -15300,-45800l0 -2700zm13600 3800c0,14700 3800,26900 11500,36300 7600,9500 17600,14200 30000,14200 12300,0 22200,-4700 29900,-14200 7600,-9400 11400,-21900 11400,-37400l0 -2600c0,-9500 -1700,-18100 -5200,-25900 -3500,-7800 -8400,-13900 -14700,-18200 -6300,-4300 -13500,-6400 -21600,-6400 -12200,0 -22100,4700 -29800,14300 -7600,9500 -11500,22000 -11500,37400l0 2500z"/>
  <path id="15" class="fil0" d="M2116100 131800c0,-19200 4200,-34400 12800,-45800 8500,-11300 20100,-17000 34800,-17000 16600,0 29300,6600 38000,19700l0 -69200 13600 0 0 175000 -12800 0 -500 -16400c-8800,12500 -21600,18700 -38500,18700 -14200,0 -25700,-5700 -34400,-17100 -8700,-11400 -13000,-26900 -13000,-46300l0 -1600zm13800 2400c0,15700 3100,28100 9400,37100 6300,9100 15200,13600 26700,13600 16700,0 28700,-7300 35700,-22200l0 -57800c-7000,-16000 -18900,-24000 -35500,-24000 -11500,0 -20400,4500 -26800,13500 -6300,9000 -9500,22200 -9500,39800z"/>
  <path id="16" class="fil0" d="M2298900 196800c-10500,0 -19900,-2500 -28400,-7700 -8500,-5200 -15000,-12400 -19800,-21600 -4700,-9200 -7000,-19600 -7000,-31000l0 -4900c0,-11900 2300,-22600 6900,-32100 4500,-9500 11000,-16900 19200,-22300 8200,-5500 17000,-8200 26600,-8200 15000,0 26800,5100 35600,15300 8800,10200 13200,24200 13200,41900l0 7700 -88000 0 0 2600c0,14000 4000,25600 12100,35000 8000,9200 18000,13900 30200,13900 7300,0 13700,-1300 19300,-4000 5600,-2700 10600,-7000 15200,-12800l8600 6500c-10100,14500 -24600,21700 -43700,21700zm-2500 -116100c-10200,0 -18900,3700 -25900,11200 -7000,7500 -11300,17600 -12800,30300l73900 0 0 -1500c-400,-11800 -3700,-21500 -10100,-28900 -6400,-7400 -14800,-11100 -25100,-11100z"/>
  <path id="17" class="fil0" d="M2428600 82900c-2900,-600 -6000,-800 -9300,-800 -8500,0 -15700,2300 -21500,7100 -5900,4700 -10100,11600 -12600,20700l0 84600 -13600 0 0 -123200 13300 0 300 19500c7200,-14500 18800,-21800 34700,-21800 3800,0 6800,500 9000,1500l-300 12400z"/>
  <polygon id="18" class="fil0" points="2527500,119300 2446500,84900 2446500,70900 2542800,113900 2542800,125000 2446500,168100 2446500,153900 "/>
 </g>
</svg>
