<?xml version="1.0" encoding="UTF-8"?>
<!DOCTYPE svg PUBLIC "-//W3C//DTD SVG 1.1//EN" "http://www.w3.org/Graphics/SVG/1.1/DTD/svg11.dtd">
<!-- Creator: CorelDRAW 2017 -->
<svg xmlns="http://www.w3.org/2000/svg" xml:space="preserve" width="150px" height="37px" version="1.1" style="shape-rendering:geometricPrecision; text-rendering:geometricPrecision; image-rendering:optimizeQuality; fill-rule:evenodd; clip-rule:evenodd"
viewBox="0 0 209100 51200"
 xmlns:xlink="http://www.w3.org/1999/xlink">
 <defs>
  <style type="text/css">
   <![CDATA[
    .fil0 {fill:#C5D30D;fill-rule:nonzero}
   ]]>
  </style>
 </defs>
 <g id="form_x0020_01-good-and-neutral">
  <metadata id="CorelCorpID_0Corel-Layer"/>
  <path class="fil0" d="M300 3600c-200,3900 -300,8000 -300,12200 0,6400 200,13100 500,19000 100,700 500,1100 1000,1100 500,0 1000,-400 1100,-1100 -300,-6000 -500,-12600 -500,-19000 0,-4200 0,-8400 300,-12200 -200,-700 -700,-900 -1100,-900 -500,0 -900,300 -1000,900zm8400 -2700c-700,6900 -1400,14000 -1400,21000 0,3700 100,7400 600,10900 300,2000 1300,2700 2500,2700 2000,0 5000,-1200 6200,-2700 500,-500 600,-800 600,-1200 0,-500 -300,-800 -700,-800 -300,0 -700,200 -1100,600 -1000,1200 -3200,2100 -4300,2100 -500,0 -900,-400 -1200,-1200 -500,-3200 -600,-6400 -600,-9700 0,-7500 1000,-14900 1500,-21700 -100,-600 -600,-900 -1000,-900 -500,0 -900,300 -1100,900zm9100 18600c-200,-1600 -2200,-1300 -2100,-100l200 1200 0 0c600,4900 1500,11200 4800,13800 -2100,4800 -3400,10000 -3600,15400 0,1400 2000,1500 2100,100 200,-5000 1400,-9900 3400,-14500 400,100 800,200 1300,200 600,0 1700,-100 2200,-600 2400,-2300 4300,-9900 6000,-14700 300,-1200 -1300,-1900 -1900,-800 -3100,3800 -6400,8300 -8500,12900 -2400,-2400 -3200,-7700 -3700,-12000l-200 -900zm8800 8500c500,-700 1000,-1400 1500,-2100 -1600,4000 -3300,7800 -4100,7700 -200,0 -300,-100 -500,-200 900,-1800 2000,-3700 3100,-5400zm20100 -7400c400,-300 600,-700 600,-1000 0,-500 -500,-1000 -1200,-1000 -4700,1700 -9000,4500 -11400,9300 -700,1400 -1500,2800 -1500,4400 0,900 300,1700 1100,2100 800,400 1800,600 2800,600 1800,0 3800,-700 5500,-2000 1600,-1200 3300,-2500 4700,-4100 -100,400 -100,800 -100,1100 0,1600 400,3000 1300,4300 800,1000 1900,1400 3000,1400 2600,0 6100,-2000 7300,-3800 0,-100 0,-200 0,-300 0,-700 -500,-1200 -1100,-1200 -300,0 -500,100 -700,400 -800,1300 -3600,2800 -5500,2800 -600,0 -1100,-100 -1300,-500 -700,-1000 -900,-2100 -900,-3200 0,-1300 300,-2700 300,-4100 900,-1600 1400,-3300 1500,-5300 -100,-800 -700,-1800 -1400,-1800 -300,0 -600,200 -800,700 -500,1500 -1000,3400 -1200,5300 -1500,2700 -3900,4900 -6300,6700 -1300,900 -3000,1500 -4300,1500 -1200,0 -1600,-300 -1600,-1000 0,-400 100,-900 300,-1500 1500,-5000 6100,-8100 10900,-9800zm44800 -4200c0,100 -100,200 -100,300 0,700 600,1000 1100,1000 400,0 800,-200 1000,-500 700,-1900 1000,-3900 1000,-5900 0,-5500 -2600,-10600 -8600,-10600 -5000,0 -13700,4000 -13700,10000 0,3300 2300,5100 5200,6200 2500,1000 5000,1400 7900,1900 -5400,1500 -8700,2100 -13100,3600 -2000,600 -3400,2400 -3400,4000 0,1800 700,3400 1900,4600 4700,4600 11900,5300 17700,5300 5600,0 11100,-1200 16200,-4600 100,-200 200,-300 200,-600 0,-500 -600,-1100 -1100,-1100 -200,0 -400,100 -500,200 -4600,3100 -9700,4100 -14900,4100 -5300,0 -12500,-700 -16100,-4600 -800,-900 -1200,-1900 -1200,-3000 0,-700 800,-2000 1900,-2400 4600,-1400 9300,-2500 14000,-3900 800,-400 1900,-900 1900,-1800 0,-1100 -1500,-1500 -2300,-1700 -2500,-500 -5200,-800 -7900,-1800 -2400,-900 -4300,-2200 -4300,-4400 0,-4700 7300,-7900 11600,-7900 4500,0 6500,4000 6500,8500 0,1700 -300,3500 -900,5100zm34800 3000c0,-800 -500,-1200 -1000,-1200 -500,0 -1000,400 -1100,1200 -200,1300 -300,3800 -400,6400 -3300,1100 -8000,1800 -11300,900l400 -3900c2700,-4100 4700,-8700 4700,-13600 0,-1200 -100,-2400 -500,-3800 -100,-500 -700,-2600 -1800,-2600 -1800,0 -2600,3300 -2700,4700 -500,4800 -1300,9800 -1800,14600 -700,1000 -1400,2000 -2200,2900 -1300,-800 -3000,-1400 -4400,-1600 -200,0 -400,-100 -600,-100 -1200,0 -2000,600 -2000,1400 0,400 300,900 800,1400 1200,500 2500,1100 3900,1400l-3200 3400c-200,300 -300,500 -300,800 0,600 500,1000 1000,1000 300,0 500,-100 700,-300 1300,-1500 2800,-2800 4100,-4300 700,100 1300,300 1700,900l0 2000c0,3400 300,6700 1000,9900 500,2400 3100,10300 6600,10300 200,0 400,0 600,0 1200,-300 1200,-3000 1200,-3600 0,-6000 -2100,-13600 -6500,-18700 3100,800 7400,0 10500,-1000l0 3700c0,1600 200,2900 800,3400 500,600 1400,1200 2300,1200 2500,0 7500,-2100 8900,-4400 100,-200 200,-400 200,-700 0,-500 -500,-900 -1100,-900 -200,0 -500,100 -800,300 -800,1300 -4300,3500 -6500,3500 -900,0 -1700,0 -1700,-1300l0 -1100c0,-3600 200,-8300 500,-12200zm-8500 28000c0,200 0,400 0,500 0,700 -100,1100 -400,1100 -300,0 -700,-300 -1100,-900 -1500,-2000 -2600,-6100 -2900,-7600 -700,-3100 -1000,-6100 -1000,-9200 3500,4600 5000,11100 5400,16100zm8000 -33300c1200,-1400 2300,-3100 2400,-5000 -100,-700 -500,-1000 -1000,-1000 -400,0 -800,200 -1000,700 -200,2100 -1300,3200 -1900,3800 -200,300 -400,600 -400,900 0,500 500,900 1000,900 300,0 600,-100 900,-300zm-12400 3600c700,-4000 1000,-8200 1600,-12300 0,300 0,500 100,500 300,1100 400,2200 400,3300 0,3000 -800,5800 -2100,8500zm59900 14100c100,-200 200,-400 200,-600 0,-600 -500,-1200 -1000,-1200 -200,0 -400,100 -600,300 -1100,1400 -3100,3100 -4500,3900 -400,300 -800,400 -1200,400 -600,0 -1200,-300 -1700,-1000 -1000,-1200 -2300,-6800 -2300,-10900 0,-2100 -1200,-2900 -2000,-2900 -600,0 -1400,700 -2000,1300 -2800,2900 -4200,5800 -6200,9600 -300,400 -400,1000 -500,1000 -100,0 -200,-300 -400,-1000 -700,-2300 -1500,-5400 -1900,-8600 -100,-500 -500,-1700 -1100,-2300 -300,-200 -500,-300 -800,-300 -400,0 -800,500 -1300,800 -2600,2500 -6100,7500 -8100,11200 -200,500 -400,700 -500,700 -200,0 -200,-300 -400,-800 -300,-2700 -500,-7600 -500,-11200l0 -1100c-100,-800 -500,-1300 -1000,-1300 -500,0 -1000,400 -1100,1200 -100,1100 -100,2200 -100,3400 0,2800 100,5700 500,8400 300,1800 700,3300 1300,4100 300,400 600,500 800,500 400,0 900,-300 1300,-800 2500,-3600 5200,-8500 8100,-11600 300,-300 500,-500 700,-500 200,0 300,200 400,900 500,4000 1600,8500 2800,11500 300,300 600,500 1000,500 300,0 600,-100 1000,-700 2500,-4400 4000,-8300 7100,-11700 200,-300 400,-300 500,-300 200,0 200,300 200,600 100,3700 1100,8300 2200,10800 800,1900 1900,2700 3300,2700 700,0 1600,-200 2500,-700 2200,-1100 4200,-3000 5300,-4300zm3000 -11300c100,-200 100,-500 100,-700 0,-600 -400,-1000 -800,-1000 -400,0 -900,300 -1100,700 -2300,2800 -3100,6100 -3100,9400 0,3800 2400,6700 6300,6700 1300,0 2700,-300 4100,-1000 3400,-1700 6800,-5400 6800,-9300 0,-5100 -3500,-6900 -6600,-6900 -3000,0 -4900,1600 -5800,4500 0,900 500,1200 900,1200 600,0 1100,-300 1100,-900 700,-1500 1600,-2700 3800,-2700 2900,0 4400,2300 4400,4900 0,3300 -2700,6000 -5300,7200 -1100,600 -2300,800 -3400,800 -2300,0 -4100,-1300 -4100,-4500 0,-2800 800,-5900 2700,-8400zm16500 -1100c-300,-500 -800,-800 -1100,-800 -500,0 -1000,500 -1000,1100 0,100 0,300 100,500 1700,4800 3000,8300 5700,12600 1300,1900 3000,3000 3700,3000 1400,0 3500,-3000 4000,-4000 2100,-3500 4200,-8200 4900,-12400 0,-700 -600,-1100 -1200,-1100 -400,0 -800,300 -900,800 -1300,4800 -2800,10100 -6200,13900 -200,300 -400,500 -600,500 -400,0 -600,-300 -900,-600 -3200,-4400 -4600,-8200 -6500,-13500z"/>
 </g>
</svg>
