<?xml version="1.0" encoding="UTF-8"?>
<!DOCTYPE svg PUBLIC "-//W3C//DTD SVG 1.1//EN" "http://www.w3.org/Graphics/SVG/1.1/DTD/svg11.dtd">
<!-- Creator: CorelDRAW 2017 -->
<svg xmlns="http://www.w3.org/2000/svg" xml:space="preserve" width="100px" height="25px" version="1.1" style="shape-rendering:geometricPrecision; text-rendering:geometricPrecision; image-rendering:optimizeQuality; fill-rule:evenodd; clip-rule:evenodd"
viewBox="0 0 92900 22800"
 xmlns:xlink="http://www.w3.org/1999/xlink">
 <defs>
  <style type="text/css">
   <![CDATA[
    .fil0 {fill:#C5D30D;fill-rule:nonzero}
   ]]>
  </style>
 </defs>
 <g id="form_x0020_01-good-and-neutral">
  <metadata id="CorelCorpID_0Corel-Layer"/>
  <path class="fil0" d="M100 1600c-100,1700 -100,3600 -100,5400 0,2900 100,5800 200,8500 100,300 300,500 500,500 200,0 400,-200 400,-600 -100,-2600 -200,-5500 -200,-8400 0,-1900 100,-3700 100,-5400 0,-300 -200,-400 -400,-400 -200,0 -400,100 -500,400zm3800 -1200c-400,3100 -700,6200 -700,9300 0,1700 100,3300 300,4900 100,900 600,1200 1100,1200 900,0 2200,-600 2800,-1200 200,-200 300,-400 300,-500 0,-300 -200,-400 -400,-400 -100,0 -300,100 -500,300 -400,500 -1400,900 -1900,900 -200,0 -400,-200 -500,-500 -200,-1500 -300,-2900 -300,-4400 0,-3300 500,-6600 700,-9600 -100,-300 -300,-400 -400,-400 -300,0 -400,100 -500,400zm4000 8300c-100,-700 -1000,-600 -900,-100l0 600 0 -100c300,2200 700,5000 2200,6200 -900,2100 -1500,4400 -1600,6800 0,700 900,700 900,100 100,-2200 700,-4400 1500,-6500 200,100 400,100 600,100 300,0 800,0 1000,-200 1100,-1100 1900,-4500 2700,-6600 100,-500 -600,-800 -900,-300 -1300,1700 -2800,3700 -3800,5700 -1000,-1000 -1400,-3400 -1600,-5400l-100 -300zm3900 3700c200,-300 500,-600 700,-900 -700,1800 -1500,3500 -1800,3400 -100,0 -200,0 -300,0 500,-900 900,-1700 1400,-2500zm9000 -3300c100,-100 200,-200 200,-400 0,-200 -200,-400 -500,-400 -2100,700 -4000,2000 -5100,4100 -300,600 -600,1300 -600,2000 0,400 100,700 500,900 300,200 700,300 1200,300 800,0 1700,-400 2400,-900 800,-600 1500,-1200 2100,-1800 0,100 0,300 0,400 0,700 200,1400 600,1900 300,500 800,700 1300,700 1100,0 2700,-900 3200,-1700 0,-100 0,-100 0,-200 0,-300 -200,-500 -500,-500 -100,0 -200,100 -300,200 -300,600 -1500,1200 -2400,1200 -300,0 -500,0 -600,-200 -300,-400 -400,-900 -400,-1400 0,-600 100,-1200 200,-1900 300,-700 600,-1400 600,-2300 0,-400 -300,-800 -600,-800 -200,0 -300,100 -400,300 -200,700 -400,1500 -500,2400 -700,1200 -1800,2100 -2800,2900 -600,500 -1300,700 -1900,700 -600,0 -700,-100 -700,-400 0,-200 0,-400 100,-700 700,-2200 2700,-3600 4900,-4400zm19900 -1800c0,100 -100,100 -100,100 0,300 300,500 500,500 200,0 400,-100 400,-300 400,-800 500,-1700 500,-2600 0,-2400 -1100,-4700 -3800,-4700 -2300,0 -6100,1800 -6100,4500 0,1400 1000,2200 2300,2700 1100,500 2200,600 3500,900 -2400,600 -3800,900 -5800,1500 -900,300 -1500,1100 -1500,1800 0,800 300,1500 800,2100 2100,2000 5300,2300 7900,2300 2500,0 4900,-500 7200,-2000 100,-100 100,-200 100,-300 0,-200 -300,-500 -500,-500 -100,0 -200,100 -200,100 -2100,1400 -4300,1800 -6700,1800 -2300,0 -5500,-300 -7100,-2000 -300,-400 -600,-800 -600,-1300 0,-300 400,-900 900,-1100 2000,-600 4100,-1100 6200,-1700 400,-200 900,-400 900,-800 0,-500 -700,-700 -1000,-800 -1200,-200 -2300,-400 -3600,-800 -1000,-400 -1900,-1000 -1900,-1900 0,-2100 3300,-3600 5200,-3600 2000,0 2900,1800 2900,3800 0,800 -200,1600 -400,2300zm15400 1300c0,-300 -200,-500 -400,-500 -200,0 -500,200 -500,500 -100,600 -100,1700 -200,2900 -1400,500 -3500,800 -5000,400l200 -1800c1200,-1800 2100,-3800 2100,-6000 0,-500 -100,-1100 -300,-1700 0,-200 -300,-1200 -800,-1200 -700,0 -1100,1500 -1200,2100 -200,2200 -500,4400 -800,6500 -300,500 -600,900 -900,1300 -600,-300 -1400,-600 -2000,-700 -100,0 -200,0 -200,0 -600,0 -900,200 -900,600 0,200 100,400 300,600 600,200 1100,500 1700,600l-1400 1500c-100,200 -100,300 -100,400 0,300 200,400 400,400 100,0 300,0 400,-100 500,-700 1200,-1200 1800,-1900 300,0 600,100 700,400l0 900c0,1500 200,3000 500,4400 200,1100 1300,4600 2900,4600 100,0 200,0 200,0 600,-200 600,-1400 600,-1700 0,-2600 -900,-6000 -2900,-8300 1400,400 3300,100 4700,-400l0 1600c0,700 100,1300 300,1600 300,200 600,500 1000,500 1200,0 3400,-1000 4000,-2000 100,-100 100,-200 100,-300 0,-200 -200,-400 -500,-400 -100,0 -200,100 -300,200 -400,500 -2000,1500 -3000,1500 -300,0 -700,0 -700,-600l0 -500c0,-1600 100,-3600 200,-5400zm-3800 12500c0,100 100,100 100,200 0,300 -100,500 -200,500 -200,0 -300,-100 -500,-400 -700,-900 -1200,-2700 -1300,-3400 -300,-1400 -400,-2700 -400,-4100 1500,2100 2200,4900 2300,7200zm3600 -14800c600,-600 1000,-1400 1100,-2300 -100,-300 -300,-400 -500,-400 -100,0 -300,100 -400,300 -100,1000 -600,1400 -900,1700 -100,100 -100,300 -100,400 0,200 200,400 400,400 100,0 300,0 400,-100zm-5500 1600c300,-1800 500,-3700 700,-5500 0,100 0,200 100,200 100,500 100,1000 100,1500 0,1300 -300,2600 -900,3800zm26600 6200c100,-100 100,-100 100,-200 0,-300 -200,-600 -400,-600 -100,0 -200,100 -300,200 -500,600 -1400,1300 -2000,1700 -200,100 -400,200 -500,200 -300,0 -500,-100 -800,-500 -400,-500 -1000,-3000 -1000,-4800 0,-1000 -600,-1300 -900,-1300 -300,0 -600,300 -900,600 -1200,1300 -1900,2600 -2800,4200 -100,200 -100,500 -200,500 0,0 -100,-100 -200,-500 -200,-1000 -600,-2400 -800,-3800 0,-200 -200,-700 -500,-1000 -100,-100 -200,-100 -300,-100 -200,0 -400,200 -600,300 -1200,1200 -2700,3300 -3600,5000 -100,200 -200,300 -200,300 -100,0 -100,-100 -200,-300 -200,-1200 -300,-3400 -300,-5000l0 -500c0,-400 -200,-600 -400,-600 -200,0 -400,200 -500,500 0,500 0,1000 0,1500 0,1300 0,2600 200,3800 100,800 300,1500 600,1800 100,200 200,200 400,200 100,0 400,-100 500,-300 1100,-1600 2300,-3800 3600,-5200 100,-100 300,-200 300,-200 100,0 200,100 200,400 200,1800 700,3800 1300,5100 100,200 200,200 400,200 100,0 300,0 400,-300 1100,-1900 1800,-3700 3200,-5200 100,-100 200,-100 200,-100 100,0 100,100 100,200 100,1700 500,3700 1000,4800 400,900 900,1300 1500,1300 300,0 700,-100 1100,-300 1000,-600 1800,-1400 2300,-2000zm1400 -5000c0,-100 0,-200 0,-300 0,-300 -200,-400 -400,-400 -100,0 -300,100 -500,300 -1000,1200 -1300,2700 -1300,4100 0,1700 1100,3000 2800,3000 600,0 1200,-100 1800,-400 1500,-800 3000,-2400 3000,-4100 0,-2300 -1500,-3100 -2900,-3100 -1400,0 -2200,700 -2600,2000 0,400 200,500 400,500 300,0 500,-100 500,-400 300,-700 700,-1200 1700,-1200 1300,0 2000,1000 2000,2200 0,1400 -1300,2600 -2400,3200 -500,200 -1100,400 -1500,400 -1000,0 -1900,-600 -1900,-2100 0,-1200 400,-2600 1300,-3700zm7300 -500c-200,-200 -300,-300 -500,-300 -200,0 -500,200 -500,400 0,100 100,200 100,300 800,2100 1300,3700 2600,5600 500,800 1300,1300 1600,1300 600,0 1500,-1300 1800,-1800 900,-1500 1800,-3600 2100,-5500 0,-300 -200,-500 -500,-500 -200,0 -400,200 -400,400 -600,2100 -1200,4500 -2700,6200 -200,100 -200,200 -300,200 -200,0 -300,-100 -400,-300 -1500,-1900 -2100,-3600 -2900,-6000z"/>
 </g>
</svg>
