<?xml version="1.0" encoding="UTF-8"?>
<!DOCTYPE svg PUBLIC "-//W3C//DTD SVG 1.1//EN" "http://www.w3.org/Graphics/SVG/1.1/DTD/svg11.dtd">
<!-- Creator: CorelDRAW 2017 -->
<svg xmlns="http://www.w3.org/2000/svg" xml:space="preserve" width="20px" height="20px" version="1.1" style="shape-rendering:geometricPrecision; text-rendering:geometricPrecision; image-rendering:optimizeQuality; fill-rule:evenodd; clip-rule:evenodd"
viewBox="0 0 3600 3600"
 xmlns:xlink="http://www.w3.org/1999/xlink">
 <defs>
  <style type="text/css">
   <![CDATA[
    .fil0 {fill:#6FDA44}
   ]]>
  </style>
 </defs>
 <g id="form_x0020_01-good-and-neutral">
  <metadata id="CorelCorpID_0Corel-Layer"/>
  <path class="fil0" d="M3200 0l-2900 0c-200,0 -300,100 -300,300l0 2900c0,200 100,400 300,400l2900 0c200,0 400,-200 400,-400l0 -2900c0,-200 -200,-300 -400,-300zm-600 2200c-100,0 -300,-100 -400,-200l0 -100 0 0c100,-200 200,-400 400,-400 200,0 300,100 300,300 0,200 -100,400 -300,400l0 0zm0 -1100c-300,0 -600,200 -700,600 -100,-200 -200,-500 -300,-700l-300 0 0 800c0,200 -200,300 -400,300 -100,0 -300,-100 -300,-300l0 -800 -300 0 0 800c0,400 300,700 600,700 400,0 700,-300 700,-700l0 -100c100,100 200,300 200,400l-200 1000 400 0 100 -700c200,0 300,100 500,100 400,0 700,-300 700,-700 0,-400 -300,-700 -700,-700l0 0z"/>
 </g>
</svg>
