<?xml version="1.0" encoding="UTF-8"?>
<!DOCTYPE svg PUBLIC "-//W3C//DTD SVG 1.1//EN" "http://www.w3.org/Graphics/SVG/1.1/DTD/svg11.dtd">
<!-- Creator: CorelDRAW 2017 -->
<svg xmlns="http://www.w3.org/2000/svg" xml:space="preserve" width="20px" height="20px" version="1.1" style="shape-rendering:geometricPrecision; text-rendering:geometricPrecision; image-rendering:optimizeQuality; fill-rule:evenodd; clip-rule:evenodd"
viewBox="0 0 3400 3400"
 xmlns:xlink="http://www.w3.org/1999/xlink">
 <defs>
  <style type="text/css">
   <![CDATA[
    .fil0 {fill:#4267B2}
   ]]>
  </style>
 </defs>
 <g id="form_x0020_01-good-and-neutral">
  <metadata id="CorelCorpID_0Corel-Layer"/>
  <path class="fil0" d="M3100 0l-2800 0c-200,0 -300,100 -300,300l0 2800c0,200 100,300 300,300l1400 0 0 -1300 -200 0 0 -500 200 0 0 -300c0,-100 0,-500 600,-500l400 0 0 400 -300 0c-100,0 -100,100 -100,100l0 300 400 0c0,300 0,500 0,500l-400 0 0 1300 800 0c200,0 300,-100 300,-300l0 -2800c0,-200 -100,-300 -300,-300z"/>
 </g>
</svg>
