<?xml version="1.0" encoding="UTF-8"?>
<!DOCTYPE svg PUBLIC "-//W3C//DTD SVG 1.1//EN" "http://www.w3.org/Graphics/SVG/1.1/DTD/svg11.dtd">
<!-- Creator: CorelDRAW 2017 -->
<svg xmlns="http://www.w3.org/2000/svg" xml:space="preserve" width="20px" height="20px" version="1.1" style="shape-rendering:geometricPrecision; text-rendering:geometricPrecision; image-rendering:optimizeQuality; fill-rule:evenodd; clip-rule:evenodd"
viewBox="0 0 3600 3600"
 xmlns:xlink="http://www.w3.org/1999/xlink">
 <defs>
  <style type="text/css">
   <![CDATA[
    .fil0 {fill:#1775B6;fill-rule:nonzero}
   ]]>
  </style>
 </defs>
 <g id="form_x0020_01-good-and-neutral">
  <metadata id="CorelCorpID_0Corel-Layer"/>
  <path class="fil0" d="M3200 3100c0,0 0,100 -100,100l-400 0c-100,0 -100,-100 -100,-100l0 -800c0,-100 0,-500 -300,-500 -300,0 -300,300 -300,400l0 900c0,0 -100,100 -100,100l-400 0c-100,0 -100,-100 -100,-100l0 -1700c0,-100 0,-100 100,-100l400 0c0,0 100,0 100,100l0 100c100,-100 200,-200 500,-200 700,0 700,600 700,1000l0 800zm-2400 -1900c-200,0 -400,-200 -400,-400 0,-200 200,-400 400,-400 200,0 400,200 400,400 0,200 -200,400 -400,400zm300 1900c0,0 0,100 -100,100l-400 0c0,0 -100,-100 -100,-100l0 -1700c0,0 100,-100 100,-100l400 0c100,0 100,100 100,100l0 1700zm2100 -3100l-2900 0c-200,0 -300,100 -300,300l0 2900c0,200 100,400 300,400l2900 0c200,0 400,-200 400,-400l0 -2900c0,-200 -200,-300 -400,-300z"/>
 </g>
</svg>
