<?xml version="1.0" encoding="UTF-8"?>
<!DOCTYPE svg PUBLIC "-//W3C//DTD SVG 1.1//EN" "http://www.w3.org/Graphics/SVG/1.1/DTD/svg11.dtd">
<!-- Creator: CorelDRAW 2017 -->
<svg xmlns="http://www.w3.org/2000/svg" xml:space="preserve" width="160px" height="200px" version="1.1" style="shape-rendering:geometricPrecision; text-rendering:geometricPrecision; image-rendering:optimizeQuality; fill-rule:evenodd; clip-rule:evenodd"
viewBox="0 0 10800 13300"
 xmlns:xlink="http://www.w3.org/1999/xlink">
 <defs>
  <style type="text/css">
   <![CDATA[
    .fil0 {fill:#B3B3B3;fill-rule:nonzero}
   ]]>
  </style>
 </defs>
 <g id="form_x0020_01-good-and-neutral">
  <metadata id="CorelCorpID_0Corel-Layer"/>
  <path class="fil0" d="M9100 7100c-100,-1700 1300,-2500 1400,-2600 -800,-1100 -2000,-1300 -2400,-1300 -1100,-100 -2100,600 -2600,600 -500,0 -1300,-600 -2200,-600 -1100,100 -2200,700 -2700,1700 -1200,2100 -300,5100 800,6700 600,800 1200,1700 2100,1700 800,0 1200,-500 2200,-500 1000,0 1300,500 2200,500 900,0 1500,-800 2000,-1600 700,-1000 900,-1900 900,-1900 0,0 -1700,-700 -1700,-2700zm-1700 -5000c400,-500 800,-1300 700,-2100 -700,0 -1500,400 -2000,1000 -400,500 -800,1300 -700,2100 700,0 1500,-400 2000,-1000z"/>
 </g>
</svg>
