<?xml version="1.0" encoding="UTF-8"?>
<!DOCTYPE svg PUBLIC "-//W3C//DTD SVG 1.1//EN" "http://www.w3.org/Graphics/SVG/1.1/DTD/svg11.dtd">
<!-- Creator: CorelDRAW 2017 -->
<svg xmlns="http://www.w3.org/2000/svg" xml:space="preserve" width="250px" height="180px" version="1.1" style="shape-rendering:geometricPrecision; text-rendering:geometricPrecision; image-rendering:optimizeQuality; fill-rule:evenodd; clip-rule:evenodd"
viewBox="0 0 24800 17500"
 xmlns:xlink="http://www.w3.org/1999/xlink">
 <defs>
  <style type="text/css">
   <![CDATA[
    .fil0 {fill:white;fill-rule:nonzero}
   ]]>
  </style>
 </defs>
 <g id="form_x0020_01-good-and-neutral">
  <metadata id="CorelCorpID_0Corel-Layer"/>
  <path class="fil0" d="M16700 300c-100,-200 -400,-300 -600,-300l0 0c-200,0 -500,100 -600,300 -400,300 -400,900 0,1200l6300 6300 -20900 0c-500,0 -900,400 -900,900 0,500 400,900 900,900l20900 0 -6300 6300c-400,400 -400,1000 0,1300 300,300 900,300 1200,0l7900 -7800c300,-400 300,-1000 0,-1300l-7900 -7800z"/>
 </g>
</svg>
