<?xml version="1.0" encoding="UTF-8"?>
<!DOCTYPE svg PUBLIC "-//W3C//DTD SVG 1.1//EN" "http://www.w3.org/Graphics/SVG/1.1/DTD/svg11.dtd">
<!-- Creator: CorelDRAW 2017 -->
<svg xmlns="http://www.w3.org/2000/svg" xml:space="preserve" width="250px" height="180px" version="1.1" style="shape-rendering:geometricPrecision; text-rendering:geometricPrecision; image-rendering:optimizeQuality; fill-rule:evenodd; clip-rule:evenodd"
viewBox="0 0 26100 18300"
 xmlns:xlink="http://www.w3.org/1999/xlink">
 <defs>
  <style type="text/css">
   <![CDATA[
    .fil0 {fill:#3D5476;fill-rule:nonzero}
   ]]>
  </style>
 </defs>
 <g id="form_x0020_01-good-and-neutral">
  <metadata id="CorelCorpID_0Corel-Layer"/>
  <path class="fil0" d="M17600 300c-200,-200 -400,-300 -700,-300l0 0c-200,0 -500,100 -700,300 -300,300 -300,900 0,1300l6700 6600 -22000 0c-500,0 -900,400 -900,1000 0,500 400,900 900,900l22000 0 -6700 6600c-300,400 -300,1000 0,1400 400,300 1000,300 1400,0l8200 -8300c400,-300 400,-900 0,-1300l-8200 -8200z"/>
 </g>
</svg>
