<?xml version="1.0" encoding="UTF-8"?>
<!DOCTYPE svg PUBLIC "-//W3C//DTD SVG 1.1//EN" "http://www.w3.org/Graphics/SVG/1.1/DTD/svg11.dtd">
<!-- Creator: CorelDRAW 2017 -->
<svg xmlns="http://www.w3.org/2000/svg" xml:space="preserve" width="250px" height="180px" version="1.1" style="shape-rendering:geometricPrecision; text-rendering:geometricPrecision; image-rendering:optimizeQuality; fill-rule:evenodd; clip-rule:evenodd"
viewBox="0 0 27000 19000"
 xmlns:xlink="http://www.w3.org/1999/xlink">
 <defs>
  <style type="text/css">
   <![CDATA[
    .fil0 {fill:#C5D30D;fill-rule:nonzero}
   ]]>
  </style>
 </defs>
 <g id="form_x0020_01-good-and-neutral">
  <metadata id="CorelCorpID_0Corel-Layer"/>
  <path class="fil0" d="M8800 300c200,-200 400,-300 700,-300l0 0c300,0 500,100 700,300 400,400 400,1000 0,1300l-6900 6900 22800 0c500,0 900,500 900,1000 0,500 -400,1000 -900,1000l-22800 0 6900 6900c400,300 400,1000 0,1300 -400,400 -1000,400 -1400,0l-8500 -8500c-400,-400 -400,-1000 0,-1400l8500 -8500z"/>
 </g>
</svg>
