<?xml version="1.0" encoding="UTF-8"?>
<!DOCTYPE svg PUBLIC "-//W3C//DTD SVG 1.1//EN" "http://www.w3.org/Graphics/SVG/1.1/DTD/svg11.dtd">
<!-- Creator: CorelDRAW 2017 -->
<svg xmlns="http://www.w3.org/2000/svg" xml:space="preserve" width="320px" height="320px" version="1.1" style="shape-rendering:geometricPrecision; text-rendering:geometricPrecision; image-rendering:optimizeQuality; fill-rule:evenodd; clip-rule:evenodd"
viewBox="0 0 39600 39600"
 xmlns:xlink="http://www.w3.org/1999/xlink">
 <defs>
  <style type="text/css">
   <![CDATA[
    .fil0 {fill:white;fill-rule:nonzero}
   ]]>
  </style>
 </defs>
 <g id="form_x0020_01-good-and-neutral">
  <metadata id="CorelCorpID_0Corel-Layer"/>
  <path class="fil0" d="M24300 0c-300,0 -600,100 -800,300l0 0c-200,200 -400,500 -400,800 0,700 500,1200 1200,1200l11500 0 -14500 14500 -4500 4500 -14500 14500 0 -11500c0,-600 -500,-1200 -1200,-1200 -300,0 -600,200 -800,400l0 0c-200,200 -300,500 -300,800l0 14200c0,600 500,1200 1100,1100l14300 0c600,100 1100,-500 1100,-1100 0,-600 -500,-1100 -1100,-1100l-11500 0 14500 -14500 4500 -4500 14500 -14500 0 11500c0,600 500,1100 1100,1100 600,0 1200,-500 1100,-1100l0 -14300c100,-600 -500,-1100 -1100,-1100l-14200 0z"/>
 </g>
</svg>
