<?xml version="1.0" encoding="UTF-8"?>
<!DOCTYPE svg PUBLIC "-//W3C//DTD SVG 1.1//EN" "http://www.w3.org/Graphics/SVG/1.1/DTD/svg11.dtd">
<!-- Creator: CorelDRAW 2017 -->
<svg xmlns="http://www.w3.org/2000/svg" xml:space="preserve" width="14px" height="14px" version="1.1" style="shape-rendering:geometricPrecision; text-rendering:geometricPrecision; image-rendering:optimizeQuality; fill-rule:evenodd; clip-rule:evenodd"
viewBox="0 0 1700 1700"
 xmlns:xlink="http://www.w3.org/1999/xlink">
 <defs>
  <style type="text/css">
   <![CDATA[
    .fil0 {fill:#FEFEFE}
   ]]>
  </style>
 </defs>
 <g id="form_x0020_01-good-and-neutral">
  <metadata id="CorelCorpID_0Corel-Layer"/>
  <path class="fil0" d="M1500 0l-1300 0c-100,0 -200,100 -200,200l0 1300c0,100 100,200 200,200l600 0 0 -700 -100 0 0 -200 100 0 0 -200c0,0 0,-200 300,-200l200 0 0 200 -100 0c-100,0 -100,0 -100,100l0 100 200 0c0,100 0,200 0,200l-200 0 0 700 400 0c100,0 200,-100 200,-200l0 -1300c0,-100 -100,-200 -200,-200z"/>
 </g>
</svg>
