<?xml version="1.0" encoding="UTF-8"?>
<!DOCTYPE svg PUBLIC "-//W3C//DTD SVG 1.1//EN" "http://www.w3.org/Graphics/SVG/1.1/DTD/svg11.dtd">
<!-- Creator: CorelDRAW 2017 -->
<svg xmlns="http://www.w3.org/2000/svg" xml:space="preserve" width="140px" height="140px" version="1.1" style="shape-rendering:geometricPrecision; text-rendering:geometricPrecision; image-rendering:optimizeQuality; fill-rule:evenodd; clip-rule:evenodd"
viewBox="0 0 16900 16900"
 xmlns:xlink="http://www.w3.org/1999/xlink">
 <defs>
  <style type="text/css">
   <![CDATA[
    .fil0 {fill:white}
   ]]>
  </style>
 </defs>
 <g id="form_x0020_01-good-and-neutral">
  <metadata id="CorelCorpID_0Corel-Layer"/>
  <path class="fil0" d="M15400 0l-13900 0c-800,0 -1500,700 -1500,1500l0 13900c0,800 700,1500 1500,1500l13900 0c800,0 1500,-700 1500,-1500l0 -13900c0,-800 -700,-1500 -1500,-1500zm-6400 7600c-2200,-400 -2400,-1100 -1800,-1600 500,-400 2000,-700 2500,200 400,800 700,1100 1300,900 500,-100 600,-900 400,-1300 -200,-400 -1100,-1400 -2800,-1400 -1700,0 -3500,600 -3500,2200 0,1600 1700,2300 3200,2500 1600,200 1900,900 1700,1400 -200,400 -800,900 -1800,800 -1000,-100 -1500,-1000 -1600,-1400 -200,-400 -700,-500 -900,-400 -200,0 -900,300 -600,1300 300,900 1400,1700 3500,1700 2100,0 3300,-1300 3300,-2500 0,-1200 -800,-2000 -2900,-2400zm-6800 -2000c0,-1900 1500,-3400 3400,-3400 700,0 1200,200 1700,500 400,-100 800,-100 1200,-100 3200,0 5900,2600 5900,5900 0,300 -100,700 -100,1100 300,500 400,1100 400,1700 0,1900 -1500,3400 -3400,3400 -600,0 -1200,-100 -1700,-400 -300,0 -700,100 -1100,100 -3300,0 -5900,-2700 -5900,-5900 0,-400 0,-800 100,-1200 -300,-400 -500,-1000 -500,-1700z"/>
 </g>
</svg>
