<?xml version="1.0" encoding="UTF-8"?>
<!DOCTYPE svg PUBLIC "-//W3C//DTD SVG 1.1//EN" "http://www.w3.org/Graphics/SVG/1.1/DTD/svg11.dtd">
<!-- Creator: CorelDRAW 2017 -->
<svg xmlns="http://www.w3.org/2000/svg" xml:space="preserve" width="140px" height="140px" version="1.1" style="shape-rendering:geometricPrecision; text-rendering:geometricPrecision; image-rendering:optimizeQuality; fill-rule:evenodd; clip-rule:evenodd"
viewBox="0 0 16900 16900"
 xmlns:xlink="http://www.w3.org/1999/xlink">
 <defs>
  <style type="text/css">
   <![CDATA[
    .fil0 {fill:white}
   ]]>
  </style>
 </defs>
 <g id="form_x0020_01-good-and-neutral">
  <metadata id="CorelCorpID_0Corel-Layer"/>
  <path class="fil0" d="M15400 0l-13900 0c-800,0 -1500,700 -1500,1500l0 13900c0,800 700,1500 1500,1500l13900 0c800,0 1500,-700 1500,-1500l0 -13900c0,-800 -700,-1500 -1500,-1500zm-4100 5600l-5100 3200c-200,100 -300,400 -200,600l500 1900c100,200 300,200 300,0l100 -1100c0,-200 100,-300 300,-500l4200 -3900c100,-100 0,-200 -100,-200zm-8600 2200l10800 -4200c200,-100 400,100 400,400l-1900 9300c-100,200 -300,300 -500,100l-2700 -1900c-100,-100 -300,-100 -500,0l-1500 1200c-100,200 -400,100 -500,-100l-1000 -3300 -2600 -1000c-300,-100 -300,-400 0,-500z"/>
 </g>
</svg>
