<?xml version="1.0" encoding="UTF-8"?>
<!DOCTYPE svg PUBLIC "-//W3C//DTD SVG 1.1//EN" "http://www.w3.org/Graphics/SVG/1.1/DTD/svg11.dtd">
<!-- Creator: CorelDRAW 2017 -->
<svg xmlns="http://www.w3.org/2000/svg" xml:space="preserve" width="140px" height="140px" version="1.1" style="shape-rendering:geometricPrecision; text-rendering:geometricPrecision; image-rendering:optimizeQuality; fill-rule:evenodd; clip-rule:evenodd"
viewBox="0 0 16900 16900"
 xmlns:xlink="http://www.w3.org/1999/xlink">
 <defs>
  <style type="text/css">
   <![CDATA[
    .fil0 {fill:white}
   ]]>
  </style>
 </defs>
 <g id="form_x0020_01-good-and-neutral">
  <metadata id="CorelCorpID_0Corel-Layer"/>
  <path class="fil0" d="M1800 4900c0,-800 700,-1500 1600,-1500l10100 0c800,0 1500,700 1500,1500l0 7000c0,900 -700,1600 -1500,1600l-10100 0c-900,0 -1600,-700 -1600,-1600l0 -7000zm1400 1000l4500 3800c100,100 200,100 400,100l700 0c100,0 300,0 400,-100l4500 -3800 0 6000c0,100 -100,200 -200,200l-10100 0c-100,0 -200,-100 -200,-200l0 -6000zm5200 2600l-4400 -3700 8900 0 -4500 3700zm-6900 8400l13900 0c800,0 1500,-700 1500,-1500l0 -13900c0,-800 -700,-1500 -1500,-1500l-13900 0c-800,0 -1500,700 -1500,1500l0 13900c0,800 700,1500 1500,1500z"/>
 </g>
</svg>
